<svg width="28" height="28" viewBox="0 0 28 28" fill="none" xmlns="http://www.w3.org/2000/svg">
<path d="M17.5 3C16.625 3 16 2.375 16 1.5C16 0.6875 16.625 0 17.5 0H26.5C27.3125 0 28 0.6875 28 1.5V10.5C28 11.375 27.3125 12 26.5 12C25.625 12 25 11.375 25 10.5V5.125L12.5 17.5625C11.9375 18.1875 11 18.1875 10.4375 17.5625C9.8125 17 9.8125 16.0625 10.4375 15.4375L22.875 3H17.5ZM0 5.5C0 3.625 1.5625 2 3.5 2H10.5C11.3125 2 12 2.6875 12 3.5C12 4.375 11.3125 5 10.5 5H3.5C3.1875 5 3 5.25 3 5.5V24.5C3 24.8125 3.1875 25 3.5 25H22.5C22.75 25 23 24.8125 23 24.5V17.5C23 16.6875 23.625 16 24.5 16C25.3125 16 26 16.6875 26 17.5V24.5C26 26.4375 24.375 28 22.5 28H3.5C1.5625 28 0 26.4375 0 24.5V5.5Z" fill="#05BBC2"/>
</svg>
